<?xml version="1.0" encoding="utf-8"?>
<!-- Generator: Adobe Illustrator 24.0.1, SVG Export Plug-In . SVG Version: 6.00 Build 0)  -->
<svg version="1.1" id="Layer_1" xmlns="http://www.w3.org/2000/svg" xmlns:xlink="http://www.w3.org/1999/xlink" x="0px" y="0px"
	 viewBox="0 0 612 792" style="enable-background:new 0 0 612 792;" xml:space="preserve">
<style type="text/css">
	.st0{fill:#FFFFFF;}
</style>
<path class="st0" d="M236.35,445.26c-3.22,0-3.22,5,0,5C239.57,450.26,239.58,445.26,236.35,445.26z"/>
<path class="st0" d="M414.76,365.04c0.05-1.28-0.75-2.6-2.41-2.6c-3.22,0-3.22,5,0,5c0.7,0,1.23-0.24,1.63-0.61
	c0.08,0.02,0.16,0.05,0.25,0.05C415.31,366.88,415.47,365.51,414.76,365.04z"/>
<path class="st0" d="M469.76,465.03c-1.2,0-1.96,0.7-2.26,1.58c-0.77,0.31-0.78,1.54,0,1.85c0.3,0.88,1.06,1.58,2.26,1.58
	C472.98,470.03,472.99,465.03,469.76,465.03z"/>
<path class="st0" d="M168.59,308.79c-3.22,0-3.22,5,0,5C171.81,313.79,171.81,308.79,168.59,308.79z"/>
<path class="st0" d="M346.47,228.79c-2.9,0-3.18,4.05-0.85,4.85c0.14,0.3,0.42,0.53,0.85,0.53c0.43,0,0.7-0.23,0.85-0.53
	C349.65,232.85,349.38,228.79,346.47,228.79z"/>
<path class="st0" d="M269.29,537.5c-3.22,0-3.22,5,0,5C272.51,542.5,272.52,537.5,269.29,537.5z"/>
<path class="st0" d="M75.41,524.32c-3.22,0-3.22,5,0,5C78.63,529.32,78.63,524.32,75.41,524.32z"/>
<path class="st0" d="M499.88,280.56c-3.22,0-3.22,5,0,5C503.1,285.56,503.1,280.56,499.88,280.56z"/>
<path class="st0" d="M67.88,298.44c-3.22,0-3.22,5,0,5C71.1,303.44,71.1,298.44,67.88,298.44z"/>
<path class="st0" d="M114.94,388.79c-3.22,0-3.22,5,0,5C118.16,393.79,118.16,388.79,114.94,388.79z"/>
<path class="st0" d="M239.18,419.74c-5.79,0-5.8,9,0,9C244.97,428.74,244.98,419.74,239.18,419.74z"/>
<path class="st0" d="M451.88,248.44c-5.79,0-5.8,9,0,9C457.67,257.44,457.68,248.44,451.88,248.44z"/>
<path class="st0" d="M568.59,503.5c-5.79,0-5.8,9,0,9C574.38,512.5,574.39,503.5,568.59,503.5z"/>
<path class="st0" d="M82.94,515.74c-5.79,0-5.8,9,0,9C88.73,524.74,88.74,515.74,82.94,515.74z"/>
<path class="st0" d="M100.82,225.85c-5.79,0-5.8,9,0,9C106.61,234.85,106.62,225.85,100.82,225.85z"/>
<path class="st0" d="M240.12,197.62c-5.79,0-5.8,9,0,9C245.91,206.62,245.92,197.62,240.12,197.62z"/>
<path class="st0" d="M381.29,531.74c-5.79,0-5.8,9,0,9C387.09,540.74,387.09,531.74,381.29,531.74z"/>
<path class="st0" d="M577.06,197.62c-5.79,0-5.8,9,0,9C582.85,206.62,582.86,197.62,577.06,197.62z"/>
<path class="st0" d="M524.35,364.21c-5.79,0-5.8,9,0,9C530.14,373.21,530.15,364.21,524.35,364.21z"/>
</svg>
